<svg xmlns="http://www.w3.org/2000/svg" version="1.1" xmlns:xlink="http://www.w3.org/1999/xlink" xmlns:svgjs="http://svgjs.dev/svgjs" width="2000" height="2250" viewBox="0 0 2000 2250"><g transform="matrix(1,0,0,1,0.00014687500004129106,0)"><svg viewBox="0 0 320 360" data-background-color="#0070ef" preserveAspectRatio="xMidYMid meet" height="2250" width="2000" xmlns="http://www.w3.org/2000/svg" xmlns:xlink="http://www.w3.org/1999/xlink"><g id="tight-bounds" transform="matrix(1,0,0,1,0.000023499999997511622,0)"><svg viewBox="0 0 320 360" height="360" width="320"><g><svg></svg></g><g><svg viewBox="0 0 320 360" height="360" width="320"><g><path transform="translate(-74.99272,-51.79039) scale(4.65793,4.65793)" d="M20.6 59.9l0.8 1-0.4-1.3c-0.1-0.6-0.8 0.1-0.4 0.3M21.5 59.3c0.3 0.5 0.6 1 0.6 1.5 0 0.7 0.6 1 1.1 1.2-0.7-0.8-1.1-3-1.7-2.7M59.9 16.9c1.7 0 3.3-0.2 5.1 0.2 4.4 1.1 8.1 3.3 10.6 6.4l7 11.2c0.3 2.8 0.9 5.9 0.8 9.3 0.7 0 0.6-1 1.4-1.2-0.8 2-1.2 4.5-1.4 7.4-0.5-1.6 0-4 0.1-5.3-0.7 1.1-1.1 0.3-1.1-0.2 0.1-0.8-0.3-0.7-0.6-1-1.1-1-1.8-2.1-2.6-3.8 0.5-1.3 0.6-3.2-1-4.2-0.5-0.3-1.1-0.8-1.4-1.6-0.4-1.1-1.1-2.4-0.9-4.1 0.1-0.5-1.5 1.1-2.4 0.4-3.9-2.7-7.8-5.8-12.5-8.4-2.5 0-4.3-0.9-5.2-2-0.8-1-0.2-2.3 1-2.4 0.7 0 1.5-0.2 2.1 0.2 0.1-0.4 0.5-0.9 1-0.9M50 14.6l0.2 0.1c1 0.2 1.5 1.6 2.6 1.1 0 0.7 0.1 1.4-0.1 1.9-0.3 0.8-1.2 0.8-1.9 0.8-6.7-0.4-10.6 2.4-14.7 4.8-1.1 0.7-2.3 1.2-3.2 2.1-4.3 4-9 7.7-10.1 15.1l-0.9 8.2c-0.1 0.9-1.1 1.8-0.9 2.9l0.7 4.9c-0.7-0.7-1.1 0.2-0.9 0.6 0.1 0.3 0.5 1.3 1.1 0.4 0.8 1.5 1.6 4.4 2.7 5.7 3.4 4 7.8 7.6 11.4 11.2 0.9-0.2 1.6-0.2 1.8-0.8 0.3 0.6-0.3 1.2-0.8 1.3 1.6 1 3.4 1.9 5.8 2.1 3.1 0.2 6 0.7 8.7 1.4 1.4-0.4 2.8-0.6 4.3-0.7 0.5 0 0.8-0.8 1.4-1l0.1-1c0.6 0.9 0.5-0.3 0.1-0.9 0.7 0.6 0.9 1.1 1.2 1.5 0-0.3 0.8-1.4 0.8-0.1l0.2-1.3c0.3-0.2 0.4 1.1 0.7 0.2 0.3-0.9 0.9-0.2 1.5-0.5-0.2 0.4-0.1 1.2 0.6 0.7l0.8-0.7c0.5 1.2 1.3 0.7 1.7 0.5 4.4-2.8 8.8-6.1 13-9.4l-0.1 1.3 0.5-1.6c0.5 0.5 0.9 0.1 1.1-0.2 0.6-1 1.4-2 2.7-2.9-1.6 4.3-3.5 7.7-5.9 10.5l-1 1.2c0 0.7-0.2 1.6-1 1.7-0.4 0.1-1.2-0.2-1.8 0.4-0.3 0.4 0.7 1.2-0.1 0.6-0.7-0.5-1.4 0-2.2 0.2-0.6 0.2 0.4 0.8 0.6 1.2 0.2 0.4 0.4 0.8 0.3 1.3l-1.1-1.2c-1.3 0.7-2.1 2-3.2 3-0.5 0.4-0.3 1.1-0.3 1.7-0.7 0-1.5-0.2-1.9 0.2-0.3 0.4-0.2 1-0.2 1.6-1-0.1-1.1-1.6-2-1.3-0.9 0.2-1.9 0.3-2.7 0.8 0.6 1.2-1 0.5-0.8 0.7-1.5-0.9-2.8-1.6-4.4-1-3.4-1.1-7.6-0.6-10.7-0.2 0-0.5 0.1-1-0.1-1.1-0.2 0.5-0.8 0.3-0.7 0.3-1.9-1.3-3.8-2.1-5.8-3.2-1.8 0.2-3.5-0.7-4-1.2-1.4-1.3-3-0.6-4.3-0.9-2.8-0.7-3.8-3.6-4.1-5.6-0.2-1-1-1.4-1.3-1.3-1.3-4.2-3.3-8-4.9-11.9-0.4-1-0.3-2-0.3-3.1 0.5 0.2 1 0.1 0.9-0.6-0.5-3.3-1.7-5.8-3-8.2 0.7-3.4 0.8-7.4 2.4-10.4 1.4-2.7 4-4.1 5.8-6.4 0.6-0.8 0.6-1.9 1.2-2.6 2-2 4-4.1 6.2-5.9 1-0.8 2.2 0 3.7-0.3 0.5-1.8 2.5-3.4 4.4-2.9 0.8 0.2 2.4-1.9 2.9-2.1 0.8-0.3 0.4 0.8 0.4 1.5 1.9-1.5 4.5-2.3 6.9-3.2" fill="#ffffff" fill-rule="nonzero" stroke="none" stroke-width="1" stroke-linecap="butt" stroke-linejoin="miter" stroke-miterlimit="10" stroke-dasharray="" stroke-dashoffset="0" font-family="none" font-weight="none" font-size="none" text-anchor="none" style="mix-blend-mode: normal" data-fill-palette-color="tertiary"></path></g><g transform="matrix(1,0,0,1,64,120.69761495931589)"><svg viewBox="0 0 192 118.60477008136823" height="118.60477008136823" width="192"><g><svg viewBox="0 0 192 118.60477008136823" height="118.60477008136823" width="192"><g><svg viewBox="0 0 192 118.60477008136823" height="118.60477008136823" width="192"><g transform="matrix(1,0,0,1,0,71.68691571495206)"><svg viewBox="0 0 192 46.91785436641617" height="46.91785436641617" width="192"><g id="textblocktransform"><svg viewBox="0 0 192 46.91785436641617" height="46.91785436641617" width="192" id="textblock"><g><svg viewBox="0 0 192 46.91785436641617" height="46.91785436641617" width="192"><g transform="matrix(1,0,0,1,0,0)"><svg width="192" viewBox="-0.45 -29.5 192.92999999999998 47.15" height="46.91785436641617" data-palette-color="#0070ef"><path d="M10.6-4.05L10.6-4.05Q6.1 4.4 2.1 4.4L2.1 4.4Q-0.45 4.4-0.45 1.8L-0.45 1.8Q-0.45 0.25 0.75-1.65L0.75-1.65Q2.8-4.85 7.13-9.53 11.45-14.2 14.45-16.95L14.45-16.95 16.35-23.4Q13.85-21.05 9.85-20.65L9.85-20.65Q9.35-20.6 9.33-20.95 9.3-21.3 9.75-21.4L9.75-21.4 9.95-21.45Q12.1-21.65 14.38-23.7 16.65-25.75 17.8-28.4L17.8-28.4Q18-29.05 19.55-29.03 21.1-29 21.05-28.4L21.05-28.4 17.6-19.85Q24.4-25.6 27.35-25.75L27.35-25.75Q27.7-25.75 28.05-25.75L28.05-25.75Q32-25.75 33.5-23.15L33.5-23.15Q34.8-20.95 34.8-18L34.8-18Q34.8-13.6 32.1-5.4L32.1-5.4Q31.65-3.95 31.73-3.93 31.8-3.9 32-4.23 32.2-4.55 32.63-5.2 33.05-5.85 34.65-8.5L34.65-8.5Q40.4-18.15 46.35-24.6L46.35-24.6Q48.3-26.65 50.25-26.65L50.25-26.65Q51.4-26.65 52-25.85 52.6-25.05 52.6-24.1 52.6-23.15 52.18-21.45 51.75-19.75 49.6-14.35L49.6-14.35Q46.95-7.75 46.95-3.55L46.95-3.55Q46.95-0.3 48.75-0.3L48.75-0.3Q50.05-0.3 52.2-1.95L52.2-1.95Q55.5-4.7 57.5-7.4L57.5-7.4Q57.75-7.75 57.98-7.55 58.2-7.35 58.2-7.23 58.2-7.1 58.1-7L58.1-7Q57.15-5.5 55.1-3.4L55.1-3.4Q51.75 0.15 49.7 0.8L49.7 0.8Q48.7 1.15 47.75 1.15L47.75 1.15Q44.45 1.1 44.45-3.6L44.45-3.6Q44.45-6.05 45.05-8.35 45.65-10.65 46.03-11.9 46.4-13.15 47-14.83 47.6-16.5 48-17.4L48-17.4Q49.3-20.65 49.6-21.45 49.9-22.25 49.9-22.83 49.9-23.4 49.6-23.63 49.3-23.85 48.8-23.85 48.3-23.85 47.25-22.95L47.25-22.95Q43.4-19.65 38.58-12.55 33.75-5.45 31.8-1.4L31.8-1.4Q31.4-0.55 31-0.55 30.6-0.55 30.15-1.28 29.7-2 29.7-2.33 29.7-2.65 29.75-2.75L29.75-2.75Q31.05-6.05 31.63-9.8 32.2-13.55 32.2-15.95L32.2-15.95Q32.2-24.4 28.55-24.4L28.55-24.4Q25.15-24.4 16.2-16.2L16.2-16.2Q15.75-14.9 14.25-11.5L14.25-11.5Q12.2-7.05 10.6-4.05ZM2.25 2.7L2.25 2.7Q5.35 2.7 9.85-5.95L9.85-5.95Q12.35-10.75 13.45-13.75L13.45-13.75Q10.8-11.25 7.6-7.63 4.4-4 3.05-2.2L3.05-2.2Q1.3 0.15 1.3 1.43 1.3 2.7 2.25 2.7ZM67.15-5.5L67.15-5.5Q68.05-7.35 68.05-8.35 68.05-9.35 67.82-9.93 67.6-10.5 68.02-10.9 68.45-11.3 69.1-11.2L69.1-11.2Q70.1-10.95 70.1-8.95 70.1-6.95 67.75-3.7L67.75-3.7Q67.8-2.35 69.15-2.35 70.5-2.35 73.25-5.25L73.25-5.25Q74.55-6.75 74.87-7.2 75.2-7.65 75.45-7.53 75.7-7.4 75.7-7.3L75.7-7.3Q75.7-6.8 73.9-4.7L73.9-4.7Q71.05-1.2 68.85-1.2L68.85-1.2Q67.4-1.2 66.8-2.45L66.8-2.45Q65.8-1.4 64.85-0.5L64.85-0.5Q62.9 1.15 60.5 1.15L60.5 1.15Q59.15 1.15 58.25 0.5L58.25 0.5Q56.5-0.55 56.5-3.25L56.5-3.25Q56.5-6.2 58.5-9.25L58.5-9.25Q59.65-11.05 61.2-12.4L61.2-12.4Q63.65-14.55 65.85-14.55L65.85-14.55Q66.4-14.55 66.9-14.4L66.9-14.4Q68.4-13.9 68.4-12.5L68.4-12.5Q68.4-11.35 67.8-11.35L67.8-11.35Q67.55-11.45 67.55-12.1L67.55-12.1Q67.55-13 66.55-13L66.55-13Q64.8-13 62.05-9.8 59.3-6.6 58.75-3.35L58.75-3.35Q58.65-2.8 58.65-2.13 58.65-1.45 59.1-0.58 59.55 0.3 60.77 0.3 62 0.3 63.45-0.8 64.9-1.9 66.05-3.6L66.05-3.6 65.9-3.9Q65.7-4.7 66.1-5.2 66.5-5.7 67.15-5.5ZM79.15-13.85L79.15-13.85Q80.4-13.85 80.65-13.05L80.65-13.05Q80.75-12.6 80.52-12.18 80.3-11.75 80.2-11.5 80.1-11.25 80.05-11.1L80.05-11.1Q79.8-10.6 79.55-10.15L79.55-10.15Q76.7-4.45 76.55-2.9L76.55-2.9Q76.5-2.45 76.5-1.75 76.5-1.05 76.9-0.6L76.9-0.6Q77.6 0.2 78.9-0.5 80.2-1.2 82.52-3.3 84.85-5.4 86.3-7.4L86.3-7.4Q86.5-7.65 86.75-7.53 87-7.4 87-7.28 87-7.15 86.9-7L86.9-7Q86.15-5.65 84.2-3.55L84.2-3.55Q81-0.1 78.85 0.7L78.85 0.7Q77.6 1.15 76.75 1.15L76.75 1.15Q74.75 1.15 74.1-0.75L74.1-0.75Q74-1.1 74-1.6L74-1.6Q74-3.35 75.6-6.9L75.6-6.9Q75.35-6.35 73.65-4.4L73.65-4.4Q73.2-3.9 72.95-4.4L72.95-4.4Q72.9-4.5 72.9-4.67 72.9-4.85 73.1-5.1L73.1-5.1Q75.55-8.15 76.95-10.25L76.95-10.25Q76.85-10.5 77.05-10.9L77.05-10.9Q78.05-13.7 78.8-13.85L78.8-13.85Q78.95-13.85 79.15-13.85ZM83.1-20.5L83.1-20.5 82.7-18.9Q82.7-18.45 82.05-17.45 81.4-16.45 81.05-16.45L81.05-16.45Q78.9-16.45 78.9-17.5L78.9-17.5Q78.9-17.7 81.05-19.35L81.05-19.35 81.9-20Q82.7-20.7 82.9-20.7 83.1-20.7 83.1-20.5ZM88.24-11.15L88.24-11.15Q88.24-13.55 86.84-13.55L86.84-13.55Q86.54-13.55 86.22-13.48 85.89-13.4 85.89-13.6 85.89-13.8 86.19-14.1L86.19-14.1Q86.49-14.35 88.24-14.5L88.24-14.5Q90.34-14.5 90.87-13.9 91.39-13.3 91.39-12.7 91.39-12.1 90.47-9.73 89.54-7.35 89.49-7.25L89.49-7.25Q87.99-2.75 88.14-1.6L88.14-1.6Q92.64-7.65 94.04-9.15L94.04-9.15Q96.99-12.4 98.24-13.6L98.24-13.6Q101.14-16.3 103.34-17.25L103.34-17.25Q103.99-17.5 104.49-17.5L104.49-17.5Q106.14-17.5 106.74-16.5L106.74-16.5Q106.94-16.25 106.94-16.03 106.94-15.8 106.79-15.5 106.64-15.2 106.24-15.53 105.84-15.85 104.44-15.85L104.44-15.85Q102.14-15.85 96.74-10.45L96.74-10.45Q93.49-7.1 90.77-3.45 88.04 0.2 87.84 1.75L87.84 1.75Q87.84 2.15 87.09 2.15 86.34 2.15 85.97 1.53 85.59 0.9 85.59 0.48 85.59 0.05 85.64-0.28 85.69-0.6 86.64-3.95 87.59-7.3 87.84-8.4L87.84-8.4Q87.24-7.4 86.19-5.95L86.19-5.95Q85.84-5.55 85.62-5.73 85.39-5.9 85.39-6.05 85.39-6.2 85.49-6.4L85.49-6.4Q87.59-9.25 88.24-11.15ZM112.94-14.55L112.94-14.55Q115.64-14.55 115.64-11.95L115.64-11.95Q115.64-10.6 114.89-9.75L114.89-9.75Q113.64-7.9 110.84-6.53 108.04-5.15 106.09-5L106.09-5Q105.39-4.95 105.34-5.4L105.34-5.4Q105.29-5.6 105.47-5.65 105.64-5.7 105.74-5.7L105.74-5.7Q106.89-5.8 108.69-6.8L108.69-6.8Q112.04-8.6 113.59-10.5L113.59-10.5Q114.24-11.4 114.24-12.23 114.24-13.05 113.44-13.05L113.44-13.05Q112.79-13.05 111.69-12.5L111.69-12.5Q109.34-11.4 106.74-8.68 104.14-5.95 103.34-3.35L103.34-3.35Q103.09-2.55 103.09-1.78 103.09-1 103.74-0.3 104.39 0.4 105.74 0.4L105.74 0.4Q107.24 0.4 109.19-0.4L109.19-0.4Q114.84-2.7 117.89-7.35L117.89-7.35Q118.19-7.75 118.44-7.5L118.44-7.5Q118.64-7.4 118.64-7.25 118.64-7.1 118.49-6.9L118.49-6.9Q116.99-4.4 114.69-2.45L114.69-2.45Q110.24 1.35 106.04 1.35L106.04 1.35Q102.44 1.35 100.99-0.8L100.99-0.8Q100.44-1.65 100.44-2.85 100.44-4.05 101.09-5.7L101.09-5.7Q102.34-8.55 106.44-11.55 110.54-14.55 112.94-14.55ZM125.14-20.4L125.14-20.4Q125.14-19.6 125.56-19 125.99-18.4 126.34-18.15L126.34-18.15Q127.04-17.7 128.14-17.15L128.14-17.15Q128.74-16.7 128.39-16.6L128.39-16.6Q128.24-16.6 128.04-16.65L128.04-16.65Q126.84-16.9 125.49-18.1 124.14-19.3 124.09-20.85L124.09-20.85Q123.94-21.4 123.94-21.8L123.94-21.8Q123.94-23.95 125.74-25.55L125.74-25.55Q129.09-28.4 136.39-28.4L136.39-28.4Q136.39-28.6 136.54-28.9L136.54-28.9Q136.64-29.5 138.09-29.5L138.09-29.5Q139.34-29.5 139.29-28.9L139.29-28.9Q139.09-28.5 139.04-28.25L139.04-28.25Q142.24-28.05 144.39-26.95L144.39-26.95Q145.09-26.6 145.41-26.1 145.74-25.6 145.74-25.4L145.74-25.4Q145.74-24.95 143.91-25.58 142.09-26.2 138.34-26.2L138.34-26.2Q138.09-25.15 136.61-20.9 135.14-16.65 134.74-15.63 134.34-14.6 133.64-12.78 132.94-10.95 132.39-9.8 131.84-8.65 131.14-7.2L131.14-7.2Q129.94-4.75 128.29-2.6L128.29-2.6Q127.04-1.15 126.39-0.65L126.39-0.65Q127.24-0.65 129.69-0.65 132.14-0.65 133.99-0.78 135.84-0.9 136.01-0.75 136.19-0.6 136.04-0.4L136.04-0.4Q135.74 0.1 135.24 0.38 134.74 0.65 127.89 0.85 121.04 1.05 119.34 1.05 117.64 1.05 116.89 1.05L116.89 1.05Q115.74 1 115.74 0.15L115.74 0.15Q115.74-0.3 116.04-1.1L116.04-1.1Q116.39-1.9 117.41-2.13 118.44-2.35 119.24-1.7L119.24-1.7Q120.59-0.6 121.89-0.6 123.19-0.6 124.56-1.1 125.94-1.6 127.34-3.4L127.34-3.4Q131.39-8.8 135.84-26.15L135.84-26.15Q131.24-25.75 128.19-24.28 125.14-22.8 125.14-20.4ZM152.74-14.2L152.74-14.2Q153.89-14.2 153.89-12.98 153.89-11.75 152.74-9.6 151.59-7.45 151.04-6.1L151.04-6.1Q150.09-3.8 150.09-2.43 150.09-1.05 150.49-0.6L150.49-0.6Q151.24 0.2 152.54-0.53 153.84-1.25 156.16-3.33 158.49-5.4 159.89-7.4L159.89-7.4Q160.09-7.65 160.36-7.53 160.64-7.4 160.64-7.28 160.64-7.15 160.54-7L160.54-7Q159.79-5.65 157.84-3.55 155.89-1.45 154.09-0.18 152.29 1.1 150.54 1.1L150.54 1.1Q148.84 1.05 148.14 0.33 147.44-0.4 147.44-1.5 147.44-2.6 147.64-3.63 147.84-4.65 148.39-6L148.39-6Q149.29-8.15 149.96-9.35 150.64-10.55 150.64-10.93 150.64-11.3 150.24-11.3L150.24-11.3Q149.44-11.3 147.19-9.35L147.19-9.35Q145.64-7.9 142.61-3.88 139.59 0.15 139.19 0.4L139.19 0.4Q137.39 1.3 136.94 1.3 136.49 1.3 136.49 1.15 136.49 1 136.59 0.73 136.69 0.45 137.56-2 138.44-4.45 139.46-7.38 140.49-10.3 140.71-10.9 140.94-11.5 141.01-11.93 141.09-12.35 141.19-12.65 141.29-12.95 141.56-13.33 141.84-13.7 142.29-13.73 142.74-13.75 143.44-13.63 144.14-13.5 144.14-13L144.14-13Q144.14-12.65 143.59-11.48 143.04-10.3 140.44-3.4L140.44-3.4Q142.24-5.6 144.99-8.47 147.74-11.35 149.64-12.85L149.64-12.85Q151.54-14.2 152.74-14.2ZM156.91 16.23Q156.78 16.45 156.66 16.55 156.53 16.65 155.63 17.15 154.73 17.65 154.01 17.65 153.28 17.65 153.28 17.3L153.28 17.3Q153.28 17.15 153.38 16.9L153.38 16.9Q154.28 15.2 162.63-6.15L162.63-6.15Q161.08-5.95 160.33-5.95 159.58-5.95 159.16-6.28 158.73-6.6 158.73-7.13 158.73-7.65 159.86-8.08 160.98-8.5 161.58-8.5 162.18-8.5 162.58-8.1 162.98-7.7 163.13-7.7L163.13-7.7 163.28-7.7 164.73-11.4Q165.63-13.9 167.48-17.93 169.33-21.95 170.83-24.35L170.83-24.35Q174.18-29.4 177.53-29.4L177.53-29.4 178.73-29.25 179.73-28.9Q181.18-28.05 181.18-26.58 181.18-25.1 180.38-23.4L180.38-23.4Q179.03-20.5 174.88-15.85 170.73-11.2 166.88-8.1L166.88-8.1Q170.98-8.45 172.16-8.45 173.33-8.45 173.38-8.15L173.38-8.15Q173.38-7.95 172.43-7.68 171.48-7.4 164.73-6.4L164.73-6.4Q158.78 8.7 158.68 10.9L158.68 10.9Q158.63 12 158.46 12.48 158.28 12.95 158.03 13.58 157.78 14.2 157.66 14.53 157.53 14.85 157.38 15.25 157.23 15.65 157.13 15.83 157.03 16 156.91 16.23ZM178.98-24.1L178.98-24.1Q179.83-25.55 179.83-26.85 179.83-28.15 178.88-28.15L178.88-28.15Q176.98-28.15 173.48-23.25L173.48-23.25Q171.43-20.35 169.83-17.5L169.83-17.5Q166.63-11.5 165.73-8.75L165.73-8.75 165.33-7.95Q168.83-10.55 172.78-15.35 176.73-20.15 178.98-24.1ZM183.93-5.5L183.93-5.5Q184.83-7.35 184.83-8.35 184.83-9.35 184.61-9.93 184.38-10.5 184.81-10.9 185.23-11.3 185.88-11.2L185.88-11.2Q186.88-10.95 186.88-8.95 186.88-6.95 184.53-3.7L184.53-3.7Q184.58-2.35 185.93-2.35 187.28-2.35 190.03-5.25L190.03-5.25Q191.33-6.75 191.66-7.2 191.98-7.65 192.23-7.53 192.48-7.4 192.48-7.3L192.48-7.3Q192.48-6.8 190.68-4.7L190.68-4.7Q187.83-1.2 185.63-1.2L185.63-1.2Q184.18-1.2 183.58-2.45L183.58-2.45Q182.58-1.4 181.63-0.5L181.63-0.5Q179.68 1.15 177.28 1.15L177.28 1.15Q175.93 1.15 175.03 0.5L175.03 0.5Q173.28-0.55 173.28-3.25L173.28-3.25Q173.28-6.2 175.28-9.25L175.28-9.25Q176.43-11.05 177.98-12.4L177.98-12.4Q180.43-14.55 182.63-14.55L182.63-14.55Q183.18-14.55 183.68-14.4L183.68-14.4Q185.18-13.9 185.18-12.5L185.18-12.5Q185.18-11.35 184.58-11.35L184.58-11.35Q184.33-11.45 184.33-12.1L184.33-12.1Q184.33-13 183.33-13L183.33-13Q181.58-13 178.83-9.8 176.08-6.6 175.53-3.35L175.53-3.35Q175.43-2.8 175.43-2.13 175.43-1.45 175.88-0.58 176.33 0.3 177.56 0.3 178.78 0.3 180.23-0.8 181.68-1.9 182.83-3.6L182.83-3.6 182.68-3.9Q182.48-4.7 182.88-5.2 183.28-5.7 183.93-5.5Z" opacity="1" transform="matrix(1,0,0,1,0,0)" fill="#0070ef" class="wordmark-text-0" data-fill-palette-color="primary" id="text-0"></path></svg></g></svg></g></svg></g></svg></g><g transform="matrix(1,0,0,1,53.341792937903186,0)"><svg viewBox="0 0 85.31641412419363 64.84047473438716" height="64.84047473438716" width="85.31641412419363"><g><svg xmlns="http://www.w3.org/2000/svg" xmlns:xlink="http://www.w3.org/1999/xlink" version="1.1" x="0" y="0" viewBox="0 13 100 76" enable-background="new 0 0 100 100" xml:space="preserve" height="64.84047473438716" width="85.31641412419363" class="icon-icon-0" data-fill-palette-color="accent" id="icon-0"><g fill="#ffffff" data-fill-palette-color="accent"><g fill="#ffffff" data-fill-palette-color="accent"><g fill="#ffffff" data-fill-palette-color="accent"><path d="M49.72 35.093c-8.964 0-16.231 7.268-16.231 16.231s7.268 16.231 16.231 16.231 16.231-7.268 16.231-16.231S58.684 35.093 49.72 35.093zM44.123 61.455V41.193l14.179 10.131L44.123 61.455z" fill="#ffffff" data-fill-palette-color="accent"></path></g><g fill="#ffffff" data-fill-palette-color="accent"><path d="M100 83.03c0 3.297-2.673 5.97-5.97 5.97H5.97C2.673 89 0 86.327 0 83.03V18.97C0 15.673 2.673 13 5.97 13H94.03c3.297 0 5.97 2.673 5.97 5.97V83.03zM5 18v65h89.034L94.03 18H5z" fill="#ffffff" data-fill-palette-color="accent"></path></g></g></g></svg></g></svg></g><g></g></svg></g></svg></g></svg></g></svg></g><defs></defs></svg><rect width="320" height="360" fill="none" stroke="none" visibility="hidden"></rect></g></svg></g></svg>